<?xml version="1.0" encoding="UTF-8" standalone="no"?>
<!DOCTYPE svg PUBLIC "-//W3C//DTD SVG 1.1//EN"
 "http://www.w3.org/Graphics/SVG/1.1/DTD/svg11.dtd">
<!-- Generated by graphviz version 2.38.0 (20140413.2041)
 -->
<!-- Title: G Pages: 1 -->
<svg width="230pt" height="222pt"
 viewBox="0.00 0.00 230.09 222.00" xmlns="http://www.w3.org/2000/svg" xmlns:xlink="http://www.w3.org/1999/xlink">
<g id="graph0" class="graph" transform="scale(1 1) rotate(0) translate(4 218)">
<title>G</title>
<polygon fill="white" stroke="none" points="-4,4 -4,-218 226.095,-218 226.095,4 -4,4"/>
<g id="clust1" class="cluster"><title>cluster_Global</title>
<path fill="none" stroke="gray" d="M121.095,-8C121.095,-8 202.095,-8 202.095,-8 208.095,-8 214.095,-14 214.095,-20 214.095,-20 214.095,-194 214.095,-194 214.095,-200 208.095,-206 202.095,-206 202.095,-206 121.095,-206 121.095,-206 115.095,-206 109.095,-200 109.095,-194 109.095,-194 109.095,-20 109.095,-20 109.095,-14 115.095,-8 121.095,-8"/>
<text text-anchor="middle" x="161.595" y="-193.2" font-family="Times,serif" font-size="11.00" fill="gray">Global</text>
</g>
<g id="clust2" class="cluster"><title>cluster_\App</title>
<path fill="none" stroke="gray" d="M129.095,-16C129.095,-16 194.095,-16 194.095,-16 200.095,-16 206.095,-22 206.095,-28 206.095,-28 206.095,-166 206.095,-166 206.095,-172 200.095,-178 194.095,-178 194.095,-178 129.095,-178 129.095,-178 123.095,-178 117.095,-172 117.095,-166 117.095,-166 117.095,-28 117.095,-28 117.095,-22 123.095,-16 129.095,-16"/>
<text text-anchor="middle" x="161.595" y="-165.2" font-family="Times,serif" font-size="11.00" fill="gray">App</text>
</g>
<g id="clust3" class="cluster"><title>cluster_\App\Sys</title>
<path fill="none" stroke="gray" d="M137.095,-24C137.095,-24 186.095,-24 186.095,-24 192.095,-24 198.095,-30 198.095,-36 198.095,-36 198.095,-138 198.095,-138 198.095,-144 192.095,-150 186.095,-150 186.095,-150 137.095,-150 137.095,-150 131.095,-150 125.095,-144 125.095,-138 125.095,-138 125.095,-36 125.095,-36 125.095,-30 131.095,-24 137.095,-24"/>
<text text-anchor="middle" x="161.595" y="-137.2" font-family="Times,serif" font-size="11.00" fill="gray">Sys</text>
</g>
<!-- \\App\\Sys\\DB -->
<g id="node1" class="node"><title>\\App\\Sys\\DB</title>
<polygon fill="none" stroke="black" points="188.595,-122 134.595,-122 134.595,-86 188.595,-86 188.595,-122"/>
<text text-anchor="middle" x="161.595" y="-101.2" font-family="Courier,monospace" font-size="11.00">DB</text>
</g>
<!-- \\PDO -->
<g id="node3" class="node"><title>\\PDO</title>
<ellipse fill="none" stroke="black" cx="30.5473" cy="-104" rx="30.5947" ry="18"/>
<text text-anchor="middle" x="30.5473" y="-100.3" font-family="Times,serif" font-size="14.00" fill="gray">\PDO</text>
</g>
<!-- \\App\\Sys\\DB&#45;&gt;\\PDO -->
<g id="edge1" class="edge"><title>\\App\\Sys\\DB&#45;&gt;\\PDO</title>
<path fill="none" stroke="black" d="M134.48,-104C116.335,-104 91.8181,-104 71.2634,-104"/>
<polygon fill="none" stroke="black" points="71.2344,-100.5 61.2343,-104 71.2343,-107.5 71.2344,-100.5"/>
</g>
<!-- \\App\\Sys\\Helper -->
<g id="node2" class="node"><title>\\App\\Sys\\Helper</title>
<polygon fill="none" stroke="black" points="190.095,-68 133.095,-68 133.095,-32 190.095,-32 190.095,-68"/>
<text text-anchor="middle" x="161.595" y="-47.2" font-family="Courier,monospace" font-size="11.00">Helper</text>
</g>
</g>
</svg>
